<mxfile host="app.diagrams.net" modified="2025-01-18T00:00:00.000Z" agent="ForexGPT" etag="TRADING_WORKFLOW_v1" version="24.0.0">
  <diagram name="Trading Engine Workflow" id="trading-workflow">
    <mxGraphModel dx="1800" dy="1200" grid="1" gridSize="10" guides="1" tooltips="1" connect="1" arrows="1" fold="1" page="1" pageScale="1" pageWidth="1400" pageHeight="2200" math="0" shadow="0">
      <root>
        <mxCell id="0" />
        <mxCell id="1" parent="0" />
        
        <!-- TITLE -->
        <mxCell id="title" value="Trading Engine - Complete Workflow" style="text;html=1;strokeColor=none;fillColor=none;align=center;verticalAlign=middle;whiteSpace=wrap;rounded=0;fontSize=26;fontStyle=1" vertex="1" parent="1">
          <mxGeometry x="300" y="20" width="800" height="40" as="geometry" />
        </mxCell>
        
        <!-- START -->
        <mxCell id="start" value="START&#xa;New Candle / Tick Arrived" style="rounded=1;whiteSpace=wrap;html=1;fillColor=#60a917;strokeColor=#2D7600;fontSize=14;fontStyle=1;fontColor=#ffffff;" vertex="1" parent="1">
          <mxGeometry x="550" y="80" width="300" height="60" as="geometry" />
        </mxCell>
        
        <!-- STEP 1: DATA COLLECTION -->
        <mxCell id="step1-title" value="STEP 1: DATA COLLECTION" style="text;html=1;strokeColor=none;fillColor=#dae8fc;align=center;verticalAlign=middle;whiteSpace=wrap;rounded=1;fontSize=14;fontStyle=1" vertex="1" parent="1">
          <mxGeometry x="50" y="180" width="1300" height="30" as="geometry" />
        </mxCell>
        
        <mxCell id="collect-ohlcv" value="Collect OHLCV Data&#xa;Last 1000 candles&#xa;Multiple timeframes" style="rounded=1;whiteSpace=wrap;html=1;fillColor=#dae8fc;strokeColor=#6c8ebf;fontSize=12;" vertex="1" parent="1">
          <mxGeometry x="100" y="230" width="180" height="80" as="geometry" />
        </mxCell>
        
        <mxCell id="collect-orderbook" value="Collect Order Book&#xa;DOM levels&#xa;Volume imbalance" style="rounded=1;whiteSpace=wrap;html=1;fillColor=#dae8fc;strokeColor=#6c8ebf;fontSize=12;" vertex="1" parent="1">
          <mxGeometry x="300" y="230" width="180" height="80" as="geometry" />
        </mxCell>
        
        <mxCell id="collect-sentiment" value="Collect Sentiment&#xa;News (FinBERT)&#xa;VIX index" style="rounded=1;whiteSpace=wrap;html=1;fillColor=#dae8fc;strokeColor=#6c8ebf;fontSize=12;" vertex="1" parent="1">
          <mxGeometry x="500" y="230" width="180" height="80" as="geometry" />
        </mxCell>
        
        <mxCell id="collect-positions" value="Collect Positions&#xa;Open positions&#xa;Account balance" style="rounded=1;whiteSpace=wrap;html=1;fillColor=#dae8fc;strokeColor=#6c8ebf;fontSize=12;" vertex="1" parent="1">
          <mxGeometry x="700" y="230" width="180" height="80" as="geometry" />
        </mxCell>
        
        <mxCell id="collect-calendar" value="Check Calendar&#xa;News events&#xa;Market hours" style="rounded=1;whiteSpace=wrap;html=1;fillColor=#dae8fc;strokeColor=#6c8ebf;fontSize=12;" vertex="1" parent="1">
          <mxGeometry x="900" y="230" width="180" height="80" as="geometry" />
        </mxCell>
        
        <!-- Arrow Start to Step 1 -->
        <mxCell id="arrow-start-to-step1" style="edgeStyle=orthogonalEdgeStyle;rounded=0;orthogonalLoop=1;jettySize=auto;html=1;exitX=0.5;exitY=1;exitDx=0;exitDy=0;entryX=0.5;entryY=0;entryDx=0;entryDy=0;strokeWidth=3;" edge="1" parent="1" source="start" target="step1-title">
          <mxGeometry relative="1" as="geometry" />
        </mxCell>
        
        <!-- STEP 2: FEATURE ENGINEERING -->
        <mxCell id="step2-title" value="STEP 2: FEATURE ENGINEERING" style="text;html=1;strokeColor=none;fillColor=#d5e8d4;align=center;verticalAlign=middle;whiteSpace=wrap;rounded=1;fontSize=14;fontStyle=1" vertex="1" parent="1">
          <mxGeometry x="50" y="350" width="1300" height="30" as="geometry" />
        </mxCell>
        
        <mxCell id="compute-indicators" value="Compute Indicators&#xa;18 Technical Indicators&#xa;ATR, RSI, MACD, etc.&#xa;Multiple timeframes" style="rounded=1;whiteSpace=wrap;html=1;fillColor=#d5e8d4;strokeColor=#82b366;fontSize=12;" vertex="1" parent="1">
          <mxGeometry x="100" y="400" width="200" height="100" as="geometry" />
        </mxCell>
        
        <mxCell id="detect-patterns" value="Detect Patterns&#xa;50+ Candlestick Patterns&#xa;Chart Patterns (H&amp;S)&#xa;Harmonic Patterns" style="rounded=1;whiteSpace=wrap;html=1;fillColor=#d5e8d4;strokeColor=#82b366;fontSize=12;" vertex="1" parent="1">
          <mxGeometry x="320" y="400" width="200" height="100" as="geometry" />
        </mxCell>
        
        <mxCell id="vision-encoding-step" value="Vision Encoding (LDM4TS)&#xa;OHLCV to RGB&#xa;SEG + GAF + RP&#xa;[3, 224, 224] images" style="rounded=1;whiteSpace=wrap;html=1;fillColor=#d5e8d4;strokeColor=#82b366;fontSize=12;fontColor=#9C27B0;fontStyle=1" vertex="1" parent="1">
          <mxGeometry x="540" y="400" width="200" height="100" as="geometry" />
        </mxCell>
        
        <mxCell id="compute-features" value="Additional Features&#xa;Returns and Volatility&#xa;Trading Sessions&#xa;Volume Profile" style="rounded=1;whiteSpace=wrap;html=1;fillColor=#d5e8d4;strokeColor=#82b366;fontSize=12;" vertex="1" parent="1">
          <mxGeometry x="760" y="400" width="200" height="100" as="geometry" />
        </mxCell>
        
        <!-- STEP 3: FORECASTING -->
        <mxCell id="step3-title" value="STEP 3: PARALLEL FORECASTING" style="text;html=1;strokeColor=none;fillColor=#e1d5e7;align=center;verticalAlign=middle;whiteSpace=wrap;rounded=1;fontSize=14;fontStyle=1" vertex="1" parent="1">
          <mxGeometry x="50" y="540" width="1300" height="30" as="geometry" />
        </mxCell>
        
        <!-- Diffusion Branch -->
        <mxCell id="diffusion-branch" value="" style="rounded=1;whiteSpace=wrap;html=1;fillColor=#f8cecc;strokeColor=#b85450;strokeWidth=2;dashed=1;" vertex="1" parent="1">
          <mxGeometry x="80" y="590" width="560" height="200" as="geometry" />
        </mxCell>
        
        <mxCell id="diffusion-label" value="DIFFUSION FORECASTING BRANCH" style="text;html=1;strokeColor=none;fillColor=none;align=center;verticalAlign=middle;whiteSpace=wrap;rounded=0;fontSize=13;fontStyle=1" vertex="1" parent="1">
          <mxGeometry x="200" y="600" width="320" height="25" as="geometry" />
        </mxCell>
        
        <mxCell id="diffusion-base-forecast" value="Diffusion Base&#xa;DDPM/DDIM&#xa;Horizons: 1-90m&#xa;Quantiles: 0.05, 0.50, 0.95" style="rounded=1;whiteSpace=wrap;html=1;fillColor=#f8cecc;strokeColor=#b85450;fontSize=11;" vertex="1" parent="1">
          <mxGeometry x="100" y="640" width="150" height="80" as="geometry" />
        </mxCell>
        
        <mxCell id="diffusion-adv-forecast" value="Diffusion Advanced&#xa;Feature Weights&#xa;Regime Conditioning&#xa;Enhanced Sampling" style="rounded=1;whiteSpace=wrap;html=1;fillColor=#f8cecc;strokeColor=#b85450;fontSize=11;" vertex="1" parent="1">
          <mxGeometry x="270" y="640" width="150" height="80" as="geometry" />
        </mxCell>
        
        <mxCell id="sssd-forecast" value="SSSD&#xa;State Space Model&#xa;Diffusion Backbone&#xa;Long Sequences" style="rounded=1;whiteSpace=wrap;html=1;fillColor=#f8cecc;strokeColor=#b85450;fontSize=11;" vertex="1" parent="1">
          <mxGeometry x="440" y="640" width="150" height="80" as="geometry" />
        </mxCell>
        
        <mxCell id="diffusion-output" value="Ensemble - Mean, Quantiles" style="rounded=1;whiteSpace=wrap;html=1;fillColor=#ffe6cc;strokeColor=#d79b00;fontSize=11;fontStyle=2" vertex="1" parent="1">
          <mxGeometry x="100" y="740" width="490" height="30" as="geometry" />
        </mxCell>
        
        <!-- LDM4TS Branch -->
        <mxCell id="ldm4ts-branch" value="" style="rounded=1;whiteSpace=wrap;html=1;fillColor=#dae8fc;strokeColor=#6c8ebf;strokeWidth=3;dashed=1;" vertex="1" parent="1">
          <mxGeometry x="680" y="590" width="460" height="200" as="geometry" />
        </mxCell>
        
        <mxCell id="ldm4ts-label" value="LDM4TS VISION BRANCH" style="text;html=1;strokeColor=none;fillColor=none;align=center;verticalAlign=middle;whiteSpace=wrap;rounded=0;fontSize=13;fontStyle=1;fontColor=#9C27B0;" vertex="1" parent="1">
          <mxGeometry x="780" y="600" width="260" height="25" as="geometry" />
        </mxCell>
        
        <mxCell id="ldm4ts-vae-step" value="VAE Encoder&#xa;RGB to Latent&#xa;[4, 28, 28]" style="rounded=1;whiteSpace=wrap;html=1;fillColor=#dae8fc;strokeColor=#6c8ebf;fontSize=11;" vertex="1" parent="1">
          <mxGeometry x="700" y="640" width="120" height="70" as="geometry" />
        </mxCell>
        
        <mxCell id="ldm4ts-unet-step" value="U-Net Diffusion&#xa;50 Steps&#xa;Cross-Attention" style="rounded=1;whiteSpace=wrap;html=1;fillColor=#dae8fc;strokeColor=#6c8ebf;fontSize=11;" vertex="1" parent="1">
          <mxGeometry x="840" y="640" width="120" height="70" as="geometry" />
        </mxCell>
        
        <mxCell id="ldm4ts-temporal-step" value="Temporal Fusion&#xa;Multi-Horizon&#xa;Future Prices" style="rounded=1;whiteSpace=wrap;html=1;fillColor=#dae8fc;strokeColor=#6c8ebf;fontSize=11;" vertex="1" parent="1">
          <mxGeometry x="980" y="640" width="120" height="70" as="geometry" />
        </mxCell>
        
        <mxCell id="ldm4ts-output" value="Monte Carlo (50 samples) - Mean, Std, Quantiles" style="rounded=1;whiteSpace=wrap;html=1;fillColor=#ffe6cc;strokeColor=#d79b00;fontSize=11;fontStyle=2;fontColor=#9C27B0;" vertex="1" parent="1">
          <mxGeometry x="700" y="740" width="400" height="30" as="geometry" />
        </mxCell>
        
        <!-- STEP 4: SIGNAL FUSION -->
        <mxCell id="step4-title" value="STEP 4: SIGNAL FUSION AND QUALITY CHECK" style="text;html=1;strokeColor=none;fillColor=#f8cecc;align=center;verticalAlign=middle;whiteSpace=wrap;rounded=1;fontSize=14;fontStyle=1" vertex="1" parent="1">
          <mxGeometry x="50" y="820" width="1300" height="30" as="geometry" />
        </mxCell>
        
        <mxCell id="signal-aggregation" value="Unified Signal Fusion&#xa;1. Aggregate Diffusion Models&#xa;2. Integrate LDM4TS Predictions&#xa;3. Confidence Weighting&#xa;4. Directional Consensus" style="rounded=1;whiteSpace=wrap;html=1;fillColor=#f8cecc;strokeColor=#b85450;fontSize=12;align=left;verticalAlign=top;" vertex="1" parent="1">
          <mxGeometry x="100" y="870" width="450" height="110" as="geometry" />
        </mxCell>
        
        <mxCell id="quality-check" value="Signal Quality Scorer&#xa;1. LDM4TS Uncertainty Filter&#xa;2. Pattern Confirmation&#xa;3. Multi-Timeframe Alignment&#xa;4. Sentiment Validation&#xa;5. Order Flow Confirmation&#xa;&#xa;THRESHOLD: Quality Score &gt;= 65%" style="rounded=1;whiteSpace=wrap;html=1;fillColor=#f8cecc;strokeColor=#b85450;fontSize=12;align=left;verticalAlign=top;fontStyle=1" vertex="1" parent="1">
          <mxGeometry x="570" y="870" width="500" height="150" as="geometry" />
        </mxCell>
        
        <!-- DECISION GATE 1 -->
        <mxCell id="decision-gate1" value="Quality Score &gt;= 65%?" style="rhombus;whiteSpace=wrap;html=1;fillColor=#fff2cc;strokeColor=#d6b656;fontSize=13;fontStyle=1" vertex="1" parent="1">
          <mxGeometry x="570" y="1050" width="200" height="100" as="geometry" />
        </mxCell>
        
        <mxCell id="gate1-reject" value="REJECT SIGNAL&#xa;Log and Wait for Next Candle" style="rounded=1;whiteSpace=wrap;html=1;fillColor=#f8cecc;strokeColor=#b85450;fontSize=12;fontStyle=1" vertex="1" parent="1">
          <mxGeometry x="880" y="1065" width="200" height="70" as="geometry" />
        </mxCell>
        
        <mxCell id="gate1-reject-label" value="NO" style="text;html=1;strokeColor=none;fillColor=none;align=center;verticalAlign=middle;whiteSpace=wrap;rounded=0;fontSize=11;fontStyle=1;fontColor=#CC0000;" vertex="1" parent="1">
          <mxGeometry x="790" y="1080" width="40" height="20" as="geometry" />
        </mxCell>
        
        <!-- STEP 5: RISK MANAGEMENT -->
        <mxCell id="step5-title" value="STEP 5: RISK MANAGEMENT" style="text;html=1;strokeColor=none;fillColor=#ffe6cc;align=center;verticalAlign=middle;whiteSpace=wrap;rounded=1;fontSize=14;fontStyle=1" vertex="1" parent="1">
          <mxGeometry x="50" y="1180" width="1300" height="30" as="geometry" />
        </mxCell>
        
        <mxCell id="gate1-pass-label" value="YES" style="text;html=1;strokeColor=none;fillColor=none;align=center;verticalAlign=middle;whiteSpace=wrap;rounded=0;fontSize=11;fontStyle=1;fontColor=#00CC00;" vertex="1" parent="1">
          <mxGeometry x="680" y="1155" width="40" height="20" as="geometry" />
        </mxCell>
        
        <mxCell id="risk-checks" value="Risk Manager Validations&#xa;&#xa;1. Account Balance Check&#xa;2. Drawdown Check (&lt; 20%)&#xa;3. Daily Loss Limit (&lt; 2%)&#xa;4. Position Limits (&lt; 5 total)&#xa;5. Correlation Check (&lt; 0.7)" style="rounded=1;whiteSpace=wrap;html=1;fillColor=#ffe6cc;strokeColor=#d79b00;fontSize=11;align=left;verticalAlign=top;" vertex="1" parent="1">
          <mxGeometry x="100" y="1230" width="350" height="180" as="geometry" />
        </mxCell>
        
        <mxCell id="position-sizing" value="Position Sizing Calculation&#xa;&#xa;Method: Kelly Criterion / Fixed %&#xa;1. Risk per Trade = Account x 1%&#xa;2. Calculate Stop Loss Distance&#xa;3. Position Size = Risk / SL Distance&#xa;4. Leverage Check&#xa;5. Margin Requirements" style="rounded=1;whiteSpace=wrap;html=1;fillColor=#ffe6cc;strokeColor=#d79b00;fontSize=11;align=left;verticalAlign=top;" vertex="1" parent="1">
          <mxGeometry x="480" y="1230" width="350" height="180" as="geometry" />
        </mxCell>
        
        <mxCell id="portfolio-optimization" value="Portfolio Manager (Riskfolio-Lib)&#xa;&#xa;1. Mean-Variance Optimization&#xa;2. Risk Parity Allocation&#xa;3. CVaR Optimization&#xa;4. Black-Litterman Model&#xa;&#xa;OUTPUT: Optimal Position Weights" style="rounded=1;whiteSpace=wrap;html=1;fillColor=#ffe6cc;strokeColor=#d79b00;fontSize=11;align=left;verticalAlign=top;" vertex="1" parent="1">
          <mxGeometry x="860" y="1230" width="350" height="180" as="geometry" />
        </mxCell>
        
        <!-- DECISION GATE 2 -->
        <mxCell id="decision-gate2" value="All Risk Checks Passed?" style="rhombus;whiteSpace=wrap;html=1;fillColor=#fff2cc;strokeColor=#d6b656;fontSize=13;fontStyle=1" vertex="1" parent="1">
          <mxGeometry x="570" y="1450" width="200" height="100" as="geometry" />
        </mxCell>
        
        <mxCell id="gate2-reject" value="REJECT TRADE&#xa;Risk Constraints Violated" style="rounded=1;whiteSpace=wrap;html=1;fillColor=#f8cecc;strokeColor=#b85450;fontSize=12;fontStyle=1" vertex="1" parent="1">
          <mxGeometry x="880" y="1465" width="200" height="70" as="geometry" />
        </mxCell>
        
        <mxCell id="gate2-reject-label" value="NO" style="text;html=1;strokeColor=none;fillColor=none;align=center;verticalAlign=middle;whiteSpace=wrap;rounded=0;fontSize=11;fontStyle=1;fontColor=#CC0000;" vertex="1" parent="1">
          <mxGeometry x="790" y="1480" width="40" height="20" as="geometry" />
        </mxCell>
        
        <!-- STEP 6: TRADE DECISION -->
        <mxCell id="step6-title" value="STEP 6: TRADE DECISION" style="text;html=1;strokeColor=none;fillColor=#d5e8d4;align=center;verticalAlign=middle;whiteSpace=wrap;rounded=1;fontSize=14;fontStyle=1" vertex="1" parent="1">
          <mxGeometry x="50" y="1580" width="1300" height="30" as="geometry" />
        </mxCell>
        
        <mxCell id="gate2-pass-label" value="YES" style="text;html=1;strokeColor=none;fillColor=none;align=center;verticalAlign=middle;whiteSpace=wrap;rounded=0;fontSize=11;fontStyle=1;fontColor=#00CC00;" vertex="1" parent="1">
          <mxGeometry x="680" y="1555" width="40" height="20" as="geometry" />
        </mxCell>
        
        <mxCell id="trade-decision" value="AUTOMATED TRADING ENGINE - DECISION MAKER&#xa;&#xa;FINAL DECISION LOGIC:&#xa;&#xa;1. Entry Type Determination&#xa;   LONG if Consensus = Bull&#xa;   SHORT if Consensus = Bear&#xa;&#xa;2. Order Parameters&#xa;   Entry Price: Market / Limit&#xa;   Position Size: From Calculation&#xa;   Stop Loss: Entry +/- (ATR x 2.0)&#xa;   Take Profit: Entry +/- (ATR x 3.0)&#xa;&#xa;3. Order Type Selection&#xa;   High Urgency (&gt;= 80%): Market Order&#xa;   Medium Urgency (65-80%): Limit Order&#xa;&#xa;4. Final Validation&#xa;   Market Hours Check&#xa;   High-Impact News Filter&#xa;   Slippage Estimate (&lt; 0.5 pips)&#xa;&#xa;ALL CHECKS PASSED - EXECUTE TRADE" style="rounded=1;whiteSpace=wrap;html=1;fillColor=#d5e8d4;strokeColor=#82b366;fontSize=11;align=left;verticalAlign=top;fontStyle=1" vertex="1" parent="1">
          <mxGeometry x="200" y="1630" width="900" height="330" as="geometry" />
        </mxCell>
        
        <!-- STEP 7: EXECUTION -->
        <mxCell id="step7-title" value="STEP 7: BROKER EXECUTION" style="text;html=1;strokeColor=none;fillColor=#fff2cc;align=center;verticalAlign=middle;whiteSpace=wrap;rounded=1;fontSize=14;fontStyle=1" vertex="1" parent="1">
          <mxGeometry x="50" y="1990" width="1300" height="30" as="geometry" />
        </mxCell>
        
        <mxCell id="broker-execution-detail" value="BROKER API EXECUTION&#xa;(MT5 / OANDA / Interactive Brokers)&#xa;&#xa;1. Send Order to Broker&#xa;   API Call: Open Position&#xa;   Order Details: Symbol, Volume, SL, TP&#xa;&#xa;2. Confirmation Received&#xa;   Order ID, Fill Price, Execution Time&#xa;&#xa;3. Store in Database&#xa;   trades table (order_id, entry_price, size, sl, tp)&#xa;&#xa;4. Real-time Monitoring&#xa;   P and L Tracking&#xa;   SL/TP Hit Detection&#xa;   Trailing Stop Updates&#xa;&#xa;5. Notifications&#xa;   Discord Alert: LONG EUR/USD @ 1.08500&#xa;   Email Alert (optional)" style="rounded=1;whiteSpace=wrap;html=1;fillColor=#fff2cc;strokeColor=#d6b656;fontSize=12;align=left;verticalAlign=top;fontStyle=1" vertex="1" parent="1">
          <mxGeometry x="300" y="2040" width="700" height="250" as="geometry" />
        </mxCell>
        
        <!-- END -->
        <mxCell id="end-monitoring" value="CONTINUOUS MONITORING&#xa;&#xa;Position Tracking (real-time P and L)&#xa;Trailing Stop Adjustments&#xa;Exit Signal Detection&#xa;Performance Metrics Logging&#xa;&#xa;LOOP BACK TO START FOR NEXT CANDLE" style="rounded=1;whiteSpace=wrap;html=1;fillColor=#a20025;strokeColor=#6F0000;fontSize=13;fontStyle=1;fontColor=#ffffff;" vertex="1" parent="1">
          <mxGeometry x="400" y="2320" width="500" height="140" as="geometry" />
        </mxCell>
        
        <!-- SIDE PANEL: KEY METRICS -->
        <mxCell id="metrics-panel" value="" style="rounded=1;whiteSpace=wrap;html=1;fillColor=#f5f5f5;strokeColor=#666666;strokeWidth=2;dashed=1;" vertex="1" parent="1">
          <mxGeometry x="1200" y="550" width="180" height="520" as="geometry" />
        </mxCell>
        
        <mxCell id="metrics-title" value="KEY METRICS" style="text;html=1;strokeColor=none;fillColor=none;align=center;verticalAlign=middle;whiteSpace=wrap;rounded=0;fontSize=14;fontStyle=1" vertex="1" parent="1">
          <mxGeometry x="1215" y="560" width="150" height="25" as="geometry" />
        </mxCell>
        
        <mxCell id="metric-quality" value="Quality Score&#xa;Threshold: &gt;= 65%" style="rounded=1;whiteSpace=wrap;html=1;fillColor=#f8cecc;strokeColor=#b85450;fontSize=10;fontStyle=1" vertex="1" parent="1">
          <mxGeometry x="1215" y="595" width="150" height="40" as="geometry" />
        </mxCell>
        
        <mxCell id="metric-uncertainty" value="LDM4TS Uncertainty&#xa;Max Std: 0.002" style="rounded=1;whiteSpace=wrap;html=1;fillColor=#dae8fc;strokeColor=#6c8ebf;fontSize=10;" vertex="1" parent="1">
          <mxGeometry x="1215" y="645" width="150" height="40" as="geometry" />
        </mxCell>
        
        <mxCell id="metric-risk" value="Risk per Trade&#xa;Default: 1%" style="rounded=1;whiteSpace=wrap;html=1;fillColor=#ffe6cc;strokeColor=#d79b00;fontSize=10;" vertex="1" parent="1">
          <mxGeometry x="1215" y="695" width="150" height="40" as="geometry" />
        </mxCell>
        
        <mxCell id="metric-drawdown" value="Max Drawdown&#xa;Limit: 20%" style="rounded=1;whiteSpace=wrap;html=1;fillColor=#ffe6cc;strokeColor=#d79b00;fontSize=10;" vertex="1" parent="1">
          <mxGeometry x="1215" y="745" width="150" height="40" as="geometry" />
        </mxCell>
        
        <mxCell id="metric-positions" value="Max Positions&#xa;Total: 5 | Same: 2" style="rounded=1;whiteSpace=wrap;html=1;fillColor=#ffe6cc;strokeColor=#d79b00;fontSize=10;" vertex="1" parent="1">
          <mxGeometry x="1215" y="795" width="150" height="40" as="geometry" />
        </mxCell>
        
        <mxCell id="metric-rr" value="Risk:Reward&#xa;Target: 1:1.5" style="rounded=1;whiteSpace=wrap;html=1;fillColor=#d5e8d4;strokeColor=#82b366;fontSize=10;" vertex="1" parent="1">
          <mxGeometry x="1215" y="845" width="150" height="40" as="geometry" />
        </mxCell>
        
        <mxCell id="metric-slippage" value="Max Slippage&#xa;Threshold: 0.5 pips" style="rounded=1;whiteSpace=wrap;html=1;fillColor=#d5e8d4;strokeColor=#82b366;fontSize=10;" vertex="1" parent="1">
          <mxGeometry x="1215" y="895" width="150" height="40" as="geometry" />
        </mxCell>
        
        <mxCell id="metric-atr" value="ATR Multiplier&#xa;SL: 2.0 | TP: 3.0" style="rounded=1;whiteSpace=wrap;html=1;fillColor=#d5e8d4;strokeColor=#82b366;fontSize=10;" vertex="1" parent="1">
          <mxGeometry x="1215" y="945" width="150" height="40" as="geometry" />
        </mxCell>
        
        <mxCell id="metric-correlation" value="Max Correlation&#xa;Limit: 0.7" style="rounded=1;whiteSpace=wrap;html=1;fillColor=#ffe6cc;strokeColor=#d79b00;fontSize=10;" vertex="1" parent="1">
          <mxGeometry x="1215" y="995" width="150" height="40" as="geometry" />
        </mxCell>
        
        <mxCell id="metric-leverage" value="Max Leverage&#xa;Retail: 1:30" style="rounded=1;whiteSpace=wrap;html=1;fillColor=#ffe6cc;strokeColor=#d79b00;fontSize=10;" vertex="1" parent="1">
          <mxGeometry x="1215" y="1020" width="150" height="40" as="geometry" />
        </mxCell>
        
        <!-- FOOTER -->
        <mxCell id="footer-workflow" value="ForexGPT Trading Engine v2.0 - Complete Workflow | Data to Features to Forecasting to Signals to Risk to Decision to Execution" style="text;html=1;strokeColor=none;fillColor=none;align=center;verticalAlign=middle;whiteSpace=wrap;rounded=0;fontSize=11;fontStyle=2;fontColor=#666666;" vertex="1" parent="1">
          <mxGeometry x="200" y="2480" width="1000" height="30" as="geometry" />
        </mxCell>
        
      </root>
    </mxGraphModel>
  </diagram>
</mxfile>
